<mxfile host="app.diagrams.net" modified="2020-08-31T19:40:42.208Z" agent="5.0 (Macintosh; Intel Mac OS X 10_15_4) AppleWebKit/537.36 (KHTML, like Gecko) Chrome/84.0.4147.105 Safari/537.36" etag="vN2TELRe8FOM16oCIjtc" version="13.6.6" type="github">
  <diagram id="eTn_AuUJCj91Tefvj_zs" name="Page-1">
    <mxGraphModel dx="748" dy="468" grid="1" gridSize="10" guides="1" tooltips="1" connect="1" arrows="1" fold="1" page="1" pageScale="1" pageWidth="850" pageHeight="1100" math="0" shadow="0">
      <root>
        <mxCell id="0" />
        <mxCell id="1" parent="0" />
        <mxCell id="DygqwQwai4_pi-jc7A12-1" value="Requester View" style="rounded=0;whiteSpace=wrap;html=1;" vertex="1" parent="1">
          <mxGeometry x="110" y="40" width="120" height="60" as="geometry" />
        </mxCell>
        <mxCell id="DygqwQwai4_pi-jc7A12-2" value="Approver View" style="rounded=0;whiteSpace=wrap;html=1;" vertex="1" parent="1">
          <mxGeometry x="420" y="40" width="120" height="60" as="geometry" />
        </mxCell>
        <mxCell id="DygqwQwai4_pi-jc7A12-4" value="Change Request for a Unit&lt;br&gt;&lt;br&gt;Inputs:&lt;br&gt;- unit (property) (type TBD)&lt;br&gt;- season to associate the unit with (dropdown with existing seasons)&lt;br&gt;- SLAs for in-season and off-season (if applicable); year-round seasons will only need one SLA&lt;br&gt;- effective start date&lt;br&gt;- written justification for request&lt;br&gt;- ability to add multiple units to a request (e.g. Streeteasy&#39;s search function)" style="text;html=1;strokeColor=none;fillColor=none;align=left;verticalAlign=middle;whiteSpace=wrap;rounded=0;" vertex="1" parent="1">
          <mxGeometry x="100" y="130" width="230" height="160" as="geometry" />
        </mxCell>
        <mxCell id="DygqwQwai4_pi-jc7A12-6" value="Change Request for a Unit&lt;br&gt;&lt;br&gt;View:&lt;br&gt;- view all change requests that have been submitted (i.e. change_request status in change_request table is &quot;submitted&quot;)&lt;br&gt;&lt;br&gt;Inputs:&lt;br&gt;- approve or reject change requests&lt;br&gt;- change requests should show up in a list with a checkbox to the left&lt;br&gt;- user can check one or multiple requests and click &quot;approve&quot; or &quot;reject&quot; at the bottom of the screen&lt;br&gt;- requests do not disappear from this screen, but show up in a different view as &quot;approved&quot; or &quot;rejected&quot;" style="text;html=1;strokeColor=none;fillColor=none;align=left;verticalAlign=middle;whiteSpace=wrap;rounded=0;" vertex="1" parent="1">
          <mxGeometry x="400" y="120" width="250" height="240" as="geometry" />
        </mxCell>
        <mxCell id="DygqwQwai4_pi-jc7A12-8" value="Submitted Requests&lt;br&gt;&lt;br&gt;View:&lt;br&gt;- view all change requests that have been submitted&lt;br&gt;- requests fall under submitted, approved, rejected, invalidated requests (Most invalid entries can be blocked through the front end UI, but certain requests may be invalidated before they become effective. For example, change request is submitted on 8/31/20 for a unit to have season A with effective start date 11/15/20. On 9/4/20, Parks decides that season A will no longer be effective as of 9/30/20. This change request will need to be invalidated because the record is scheduled to become effective after the selected season is ineffective.&amp;nbsp;&lt;br&gt;" style="text;html=1;strokeColor=none;fillColor=none;align=left;verticalAlign=middle;whiteSpace=wrap;rounded=0;" vertex="1" parent="1">
          <mxGeometry x="100" y="330" width="220" height="220" as="geometry" />
        </mxCell>
      </root>
    </mxGraphModel>
  </diagram>
</mxfile>
